# This file uses centimeters as units for non-parametric coordinates.

mtllib mech_platform.mtl
g default
v -285.844849 0.000000 285.844849
v 285.844849 0.000000 -285.844849
v 285.844849 0.000000 285.844849
v -285.844849 0.000000 -285.844849
v -285.844849 -56.538960 -285.844849
v -285.844849 -56.538960 285.844849
v 285.844849 -56.538960 285.844849
v -4.092987 416.671570 -269.832642
v -4.092987 -1.453751 -269.832642
v -4.092987 416.671570 -258.604065
v -4.092987 -1.453751 -258.604065
v 16.943192 416.671570 -258.604065
v 16.943192 -1.453751 -258.604065
v 16.943192 416.671570 -269.832642
v 16.943192 -1.453751 -269.832642
v -4.092987 199.751205 -258.604065
v 16.943192 199.751205 -258.604065
v 16.943192 199.751205 -269.832642
v -4.092987 199.751205 -269.832642
v -4.092987 220.861191 -258.604065
v 16.943192 220.861191 -258.604065
v 16.943192 220.861191 -269.832642
v -4.092987 220.861191 -269.832642
v -227.432556 220.861191 -269.832642
v -227.432556 220.861191 -258.604065
v -227.432556 199.751205 -269.832642
v -227.432556 199.751205 -258.604065
v 245.084183 220.861191 -258.604065
v 245.084183 220.861191 -269.832642
v 245.084183 199.751205 -258.604065
v 245.084183 199.751205 -269.832642
v -269.172119 478.941071 -102.574554
v 269.172150 478.941071 -102.574554
v -269.172119 493.398071 -102.574554
v 269.172150 493.398071 -102.574554
v -269.172119 493.398071 -129.658997
v 269.172150 493.398071 -129.658997
v -269.172119 478.941071 -129.658997
v 269.172150 478.941071 -129.659027
v -269.172119 464.257477 -97.127411
v 269.172150 464.257477 -97.127426
v -269.172119 478.714478 -97.127426
v 269.172150 478.714478 -97.127426
v -269.172119 478.714478 -140.181213
v 269.172150 478.714478 -140.181244
v -269.172119 464.257477 -140.181229
v 269.172150 464.257477 -140.181274
v -269.172119 493.109161 -97.127411
v 269.172150 493.109161 -97.127426
v -269.172119 507.566162 -97.127426
v 269.172150 507.566162 -97.127426
v -269.172119 507.566162 -140.181213
v 269.172150 507.566162 -140.181244
v -269.172119 493.109161 -140.181229
v 269.172150 493.109161 -140.181274
v -238.471512 508.148285 -36.556503
v -238.471512 508.148254 -253.484497
v -223.998001 508.148285 -36.556503
v -223.998001 508.148254 -253.484497
v -223.998001 535.263672 -36.556503
v -223.998001 535.242249 -280.578461
v -238.471512 535.263672 -36.556503
v -238.471512 535.242249 -280.578461
v -223.998001 -3.737793 -253.484482
v -238.471512 -3.737793 -253.484482
v -238.471512 -3.737793 -280.599823
v -223.998001 -3.737793 -280.599823
v -149.759537 22.258894 -102.443527
v -149.759537 22.258909 -256.346649
v -161.650162 22.258894 -102.443527
v -161.650162 22.258909 -256.346649
v -161.650162 -0.017577 -102.443527
v -161.650162 0.000000 -278.605530
v -149.759537 -0.017577 -102.443527
v -149.759537 0.000000 -278.605530
v -161.650162 472.879822 -256.346619
v -149.759537 472.879822 -256.346619
v -149.759537 472.879822 -278.623077
v -161.650162 472.879822 -278.623077
v -160.056305 264.645386 -256.957611
v -160.056305 7.638010 -104.791397
v -152.035492 264.645386 -256.957611
v -152.035492 7.638010 -104.791397
v -152.035492 256.989807 -269.887817
v -152.035492 -0.017574 -117.721611
v -160.056305 256.989807 -269.887817
v -160.056305 -0.017577 -117.721619
v -160.684357 458.892517 -260.079559
v -160.684357 458.892517 -63.293877
v -160.684357 464.177124 -260.079559
v -160.684357 464.177124 -63.293877
v -150.783951 464.177124 -260.079559
v -150.783936 464.177124 -63.293877
v -150.783951 458.892517 -260.079559
v -150.783936 458.892517 -63.293877
v 238.471512 508.148285 -36.556503
v 238.471512 508.148254 -253.484497
v 223.998001 508.148285 -36.556503
v 223.998001 508.148254 -253.484497
v 223.998001 535.263672 -36.556503
v 223.998001 535.242249 -280.578461
v 238.471512 535.263672 -36.556503
v 238.471512 535.242249 -280.578461
v 223.998001 -3.737793 -253.484482
v 238.471512 -3.737793 -253.484482
v 238.471512 -3.737793 -280.599823
v 223.998001 -3.737793 -280.599823
v 149.759537 22.258894 -102.443527
v 149.759537 22.258909 -256.346649
v 161.650162 22.258894 -102.443527
v 161.650162 22.258909 -256.346649
v 161.650162 -0.017577 -102.443527
v 161.650162 0.000000 -278.605530
v 149.759537 -0.017577 -102.443527
v 149.759537 0.000000 -278.605530
v 161.650162 472.879822 -256.346619
v 149.759537 472.879822 -256.346619
v 149.759537 472.879822 -278.623077
v 161.650162 472.879822 -278.623077
v 160.056305 264.645386 -256.957611
v 160.056305 7.638010 -104.791397
v 152.035492 264.645386 -256.957611
v 152.035492 7.638010 -104.791397
v 152.035492 256.989807 -269.887817
v 152.035492 -0.017574 -117.721611
v 160.056305 256.989807 -269.887817
v 160.056305 -0.017577 -117.721619
v 160.684357 458.892517 -260.079559
v 160.684357 458.892517 -63.293877
v 160.684357 464.177124 -260.079559
v 160.684357 464.177124 -63.293877
v 150.783951 464.177124 -260.079559
v 150.783936 464.177124 -63.293877
v 150.783951 458.892517 -260.079559
v 150.783936 458.892517 -63.293877
vt 0.508794 0.515750
vt 0.508794 0.050130
vt 0.955539 0.050130
vt 0.955540 0.515750
vt 0.991111 0.014541
vt 0.991111 0.515750
vt 0.508794 0.014541
vt 0.774556 0.669738
vt 0.774556 0.822698
vt 0.765785 0.822698
vt 0.765785 0.669738
vt 0.749352 0.822698
vt 0.749352 0.669738
vt 0.740580 0.822698
vt 0.740580 0.669738
vt 0.765785 0.839189
vt 0.765785 0.996363
vt 0.749352 0.996363
vt 0.749352 0.839189
vt 0.740580 0.839189
vt 0.740580 0.996363
vt 0.774556 0.839189
vt 0.774556 0.996363
vt 0.765785 0.813927
vt 0.986840 0.813927
vt 0.986840 0.822698
vt 0.765785 0.847960
vt 0.986840 0.839189
vt 0.986840 0.847960
vt 0.749352 0.813927
vt 0.571136 0.822698
vt 0.571136 0.813927
vt 0.571136 0.839189
vt 0.749352 0.847960
vt 0.571136 0.847960
vt 0.973598 0.684516
vt 0.578109 0.684516
vt 0.578109 0.673896
vt 0.973598 0.673896
vt 0.558211 0.684516
vt 0.558211 0.673896
vt 0.993495 0.684516
vt 0.993495 0.673896
vt 0.982093 0.708962
vt 0.570766 0.708962
vt 0.570766 0.697916
vt 0.982093 0.697916
vt 0.982093 0.741858
vt 0.570766 0.741858
vt 0.559720 0.741858
vt 0.559720 0.708962
vt 0.993139 0.708962
vt 0.993139 0.741858
vt 0.982093 0.708962
vt 0.570766 0.708962
vt 0.570766 0.697916
vt 0.982093 0.697916
vt 0.982093 0.741858
vt 0.570766 0.741858
vt 0.559720 0.741858
vt 0.559720 0.708962
vt 0.993139 0.708962
vt 0.993139 0.741858
vt 0.593250 0.796521
vt 0.593249 0.972850
vt 0.581485 0.972850
vt 0.581485 0.796521
vt 0.559462 0.994873
vt 0.559444 0.796521
vt 0.559620 0.796599
vt 0.559637 0.994950
vt 0.581660 0.972927
vt 0.581661 0.796599
vt 0.559444 0.784756
vt 0.581485 0.784756
vt 0.997568 0.972849
vt 0.581485 0.961085
vt 0.997568 0.961085
vt 0.997744 0.972927
vt 0.997744 0.994968
vt 0.997568 0.994890
vt 0.590517 0.809809
vt 0.590517 0.949941
vt 0.579690 0.949941
vt 0.579690 0.809809
vt 0.559423 0.970209
vt 0.559407 0.809809
vt 0.559471 0.809831
vt 0.559487 0.970231
vt 0.579754 0.949964
vt 0.579754 0.809831
vt 0.559407 0.798982
vt 0.579690 0.798982
vt 0.989991 0.949941
vt 0.579690 0.939115
vt 0.989991 0.939115
vt 0.990054 0.949963
vt 0.990054 0.970247
vt 0.989991 0.970224
vt 0.567170 0.821587
vt 0.981961 0.821493
vt 0.981964 0.832768
vt 0.567173 0.832863
vt 0.981962 0.853880
vt 0.567185 0.853974
vt 0.567172 0.800476
vt 0.981950 0.800382
vt 0.993567 0.845796
vt 0.585303 0.845796
vt 0.585303 0.834832
vt 0.993567 0.834832
vt 0.993567 0.877300
vt 0.585303 0.877300
vt 0.585303 0.866336
vt 0.993567 0.866336
vt 0.564763 0.845796
vt 0.564763 0.834832
vt 0.593250 0.796521
vt 0.593249 0.972850
vt 0.581485 0.972850
vt 0.581485 0.796521
vt 0.559462 0.994873
vt 0.559444 0.796521
vt 0.559620 0.796599
vt 0.559637 0.994950
vt 0.581660 0.972927
vt 0.581661 0.796599
vt 0.559444 0.784756
vt 0.581485 0.784756
vt 0.997568 0.972849
vt 0.581485 0.961085
vt 0.997568 0.961085
vt 0.997744 0.972927
vt 0.997744 0.994968
vt 0.997568 0.994890
vt 0.590517 0.809809
vt 0.590517 0.949941
vt 0.579690 0.949941
vt 0.579690 0.809809
vt 0.559423 0.970209
vt 0.559407 0.809809
vt 0.559471 0.809831
vt 0.559487 0.970231
vt 0.579754 0.949964
vt 0.579754 0.809831
vt 0.559407 0.798982
vt 0.579690 0.798982
vt 0.989991 0.949941
vt 0.579690 0.939115
vt 0.989991 0.939115
vt 0.990054 0.949963
vt 0.990054 0.970247
vt 0.989991 0.970224
vt 0.567170 0.821587
vt 0.981961 0.821493
vt 0.981964 0.832768
vt 0.567173 0.832863
vt 0.981962 0.853880
vt 0.567185 0.853974
vt 0.567172 0.800476
vt 0.981950 0.800382
vt 0.993567 0.845796
vt 0.585303 0.845796
vt 0.585303 0.834832
vt 0.993567 0.834832
vt 0.993567 0.877300
vt 0.585303 0.877300
vt 0.585303 0.866336
vt 0.993567 0.866336
vt 0.564763 0.845796
vt 0.564763 0.834832
vn 0.000000 1.000000 0.000000
vn 0.000000 1.000000 0.000000
vn 0.000000 1.000000 0.000000
vn 0.000000 1.000000 0.000000
vn -1.000000 0.000000 0.000000
vn -1.000000 0.000000 0.000000
vn -1.000000 0.000000 0.000000
vn -1.000000 0.000000 0.000000
vn 0.000000 0.000000 1.000000
vn 0.000000 0.000000 1.000000
vn 0.000000 0.000000 1.000000
vn 0.000000 0.000000 1.000000
vn -1.000000 0.000000 0.000000
vn -1.000000 0.000000 0.000000
vn -1.000000 0.000000 0.000000
vn -1.000000 0.000000 0.000000
vn 0.000000 -0.000000 1.000000
vn 0.000000 -0.000000 1.000000
vn 0.000000 -0.000000 1.000000
vn 0.000000 -0.000000 1.000000
vn 1.000000 0.000000 -0.000000
vn 1.000000 0.000000 -0.000000
vn 1.000000 0.000000 -0.000000
vn 1.000000 0.000000 -0.000000
vn 0.000000 -0.000000 1.000000
vn 0.000000 -0.000000 1.000000
vn 0.000000 -0.000000 1.000000
vn 0.000000 -0.000000 1.000000
vn 1.000000 0.000000 -0.000000
vn 1.000000 0.000000 -0.000000
vn 1.000000 0.000000 -0.000000
vn 1.000000 0.000000 -0.000000
vn -1.000000 0.000000 0.000000
vn -1.000000 0.000000 0.000000
vn -1.000000 0.000000 0.000000
vn -1.000000 0.000000 0.000000
vn 0.000000 -0.000000 1.000000
vn 0.000000 -0.000000 1.000000
vn 0.000000 -0.000000 1.000000
vn 0.000000 -0.000000 1.000000
vn 0.000000 1.000000 0.000000
vn 0.000000 1.000000 0.000000
vn 0.000000 1.000000 0.000000
vn 0.000000 1.000000 0.000000
vn -0.000000 -1.000000 -0.000000
vn -0.000000 -1.000000 -0.000000
vn -0.000000 -1.000000 -0.000000
vn -0.000000 -1.000000 -0.000000
vn 0.000000 -0.000000 1.000000
vn 0.000000 -0.000000 1.000000
vn 0.000000 -0.000000 1.000000
vn 0.000000 -0.000000 1.000000
vn 0.000000 1.000000 0.000000
vn 0.000000 1.000000 0.000000
vn 0.000000 1.000000 0.000000
vn 0.000000 1.000000 0.000000
vn 0.000000 -0.000000 1.000000
vn 0.000000 -0.000000 1.000000
vn 0.000000 -0.000000 1.000000
vn 0.000000 -0.000000 1.000000
vn -0.000000 -1.000000 -0.000000
vn -0.000000 -1.000000 -0.000000
vn -0.000000 -1.000000 -0.000000
vn -0.000000 -1.000000 -0.000000
vn 0.000000 0.000000 1.000000
vn 0.000000 0.000000 1.000000
vn 0.000000 0.000000 1.000000
vn 0.000000 0.000000 1.000000
vn 1.000000 0.000000 0.000000
vn 1.000000 0.000000 0.000000
vn 1.000000 0.000000 0.000000
vn 1.000000 0.000000 0.000000
vn -1.000000 -0.000003 0.000000
vn -1.000000 -0.000003 0.000000
vn -1.000000 -0.000003 0.000000
vn -1.000000 -0.000003 0.000000
vn 0.000000 0.000000 1.000000
vn 0.000000 0.000000 1.000000
vn 0.000000 0.000000 1.000000
vn 0.000000 0.000000 1.000000
vn 0.000000 -1.000000 0.000000
vn 0.000000 -1.000000 0.000000
vn 0.000000 -1.000000 0.000000
vn 0.000000 -1.000000 0.000000
vn 1.000000 0.000000 0.000000
vn 1.000000 0.000000 0.000000
vn 1.000000 0.000000 0.000000
vn 1.000000 0.000000 0.000000
vn -1.000000 -0.000003 0.000000
vn -1.000000 -0.000003 0.000000
vn -1.000000 -0.000003 0.000000
vn -1.000000 -0.000003 0.000000
vn 0.000000 0.000000 1.000000
vn 0.000000 0.000000 1.000000
vn 0.000000 0.000000 1.000000
vn 0.000000 0.000000 1.000000
vn 0.000000 -1.000000 0.000000
vn 0.000000 -1.000000 0.000000
vn 0.000000 -1.000000 0.000000
vn 0.000000 -1.000000 0.000000
vn 1.000000 0.000000 0.000000
vn 1.000000 0.000000 0.000000
vn 1.000000 0.000000 0.000000
vn 1.000000 0.000000 0.000000
vn -1.000000 -0.000003 0.000000
vn -1.000000 -0.000003 0.000000
vn -1.000000 -0.000003 0.000000
vn -1.000000 -0.000003 0.000000
vn 0.000000 -1.000000 0.000000
vn 0.000000 -1.000000 0.000000
vn 0.000000 -1.000000 0.000000
vn 0.000000 -1.000000 0.000000
vn 1.000000 -0.000000 -0.000000
vn 1.000000 -0.000000 -0.000000
vn 1.000000 -0.000000 -0.000000
vn 1.000000 -0.000000 -0.000000
vn -1.000000 -0.000000 0.000000
vn -1.000000 -0.000000 0.000000
vn -1.000000 -0.000000 0.000000
vn -1.000000 -0.000000 0.000000
vn 0.000000 0.000000 1.000000
vn 0.000000 0.000000 1.000000
vn 0.000000 0.000000 1.000000
vn 0.000000 0.000000 1.000000
vn 0.000000 0.000000 1.000000
vn 0.000000 0.000000 1.000000
vn 0.000000 0.000000 1.000000
vn 0.000000 0.000000 1.000000
vn -1.000000 -0.000000 0.000000
vn -1.000000 -0.000000 0.000000
vn -1.000000 -0.000000 0.000000
vn -1.000000 -0.000000 0.000000
vn 1.000000 0.000000 -0.000000
vn 1.000000 0.000000 -0.000000
vn 1.000000 0.000000 -0.000000
vn 1.000000 0.000000 -0.000000
vn 0.000000 1.000000 0.000000
vn 0.000000 1.000000 0.000000
vn 0.000000 1.000000 0.000000
vn 0.000000 1.000000 0.000000
vn -1.000000 0.000000 -0.000000
vn -1.000000 0.000000 -0.000000
vn -1.000000 0.000000 -0.000000
vn -1.000000 0.000000 -0.000000
vn 1.000000 -0.000000 0.000000
vn 1.000000 -0.000000 0.000000
vn 1.000000 -0.000000 0.000000
vn 1.000000 -0.000000 0.000000
vn -0.000000 -0.000000 1.000000
vn -0.000000 -0.000000 1.000000
vn -0.000000 -0.000000 1.000000
vn -0.000000 -0.000000 1.000000
vn -0.000000 -0.000000 1.000000
vn -0.000000 -0.000000 1.000000
vn -0.000000 -0.000000 1.000000
vn -0.000000 -0.000000 1.000000
vn 1.000000 -0.000000 0.000000
vn 1.000000 -0.000000 0.000000
vn 1.000000 -0.000000 0.000000
vn 1.000000 -0.000000 0.000000
vn -1.000000 0.000000 -0.000000
vn -1.000000 0.000000 -0.000000
vn -1.000000 0.000000 -0.000000
vn -1.000000 0.000000 -0.000000
vn 0.000000 0.509469 0.860489
vn 0.000000 0.509469 0.860489
vn 0.000000 0.509469 0.860489
vn 0.000000 0.509469 0.860489
vn 1.000000 0.000000 -0.000000
vn 1.000000 0.000000 -0.000000
vn 1.000000 0.000000 -0.000000
vn 1.000000 0.000000 -0.000000
vn -1.000000 -0.000000 0.000000
vn -1.000000 -0.000000 0.000000
vn -1.000000 -0.000000 0.000000
vn -1.000000 -0.000000 0.000000
vn -1.000000 0.000000 0.000000
vn -1.000000 0.000000 0.000000
vn -1.000000 0.000000 0.000000
vn -1.000000 0.000000 0.000000
vn 1.000000 0.000000 -0.000000
vn 1.000000 0.000000 -0.000000
vn 1.000000 0.000000 -0.000000
vn 1.000000 0.000000 -0.000000
vn 0.000000 -1.000000 0.000000
vn 0.000000 -1.000000 0.000000
vn 0.000000 -1.000000 0.000000
vn 0.000000 -1.000000 0.000000
vn 0.000000 0.000000 1.000000
vn 0.000000 0.000000 1.000000
vn 0.000000 0.000000 1.000000
vn 0.000000 0.000000 1.000000
vn -0.000000 -1.000000 0.000000
vn -0.000000 -1.000000 0.000000
vn -0.000000 -1.000000 0.000000
vn -0.000000 -1.000000 0.000000
vn -1.000000 -0.000000 -0.000000
vn -1.000000 -0.000000 -0.000000
vn -1.000000 -0.000000 -0.000000
vn -1.000000 -0.000000 -0.000000
vn 1.000000 -0.000000 0.000000
vn 1.000000 -0.000000 0.000000
vn 1.000000 -0.000000 0.000000
vn 1.000000 -0.000000 0.000000
vn -0.000000 0.000000 1.000000
vn -0.000000 0.000000 1.000000
vn -0.000000 0.000000 1.000000
vn -0.000000 0.000000 1.000000
vn -0.000000 0.000000 1.000000
vn -0.000000 0.000000 1.000000
vn -0.000000 0.000000 1.000000
vn -0.000000 0.000000 1.000000
vn 1.000000 -0.000000 0.000000
vn 1.000000 -0.000000 0.000000
vn 1.000000 -0.000000 0.000000
vn 1.000000 -0.000000 0.000000
vn -1.000000 0.000000 -0.000000
vn -1.000000 0.000000 -0.000000
vn -1.000000 0.000000 -0.000000
vn -1.000000 0.000000 -0.000000
vn -0.000000 1.000000 0.000000
vn -0.000000 1.000000 0.000000
vn -0.000000 1.000000 0.000000
vn -0.000000 1.000000 0.000000
vn 1.000000 0.000000 -0.000000
vn 1.000000 0.000000 -0.000000
vn 1.000000 0.000000 -0.000000
vn 1.000000 0.000000 -0.000000
vn -1.000000 -0.000000 0.000000
vn -1.000000 -0.000000 0.000000
vn -1.000000 -0.000000 0.000000
vn -1.000000 -0.000000 0.000000
vn 0.000000 -0.000000 1.000000
vn 0.000000 -0.000000 1.000000
vn 0.000000 -0.000000 1.000000
vn 0.000000 -0.000000 1.000000
vn 0.000000 -0.000000 1.000000
vn 0.000000 -0.000000 1.000000
vn 0.000000 -0.000000 1.000000
vn 0.000000 -0.000000 1.000000
vn -1.000000 -0.000000 0.000000
vn -1.000000 -0.000000 0.000000
vn -1.000000 -0.000000 0.000000
vn -1.000000 -0.000000 0.000000
vn 1.000000 0.000000 -0.000000
vn 1.000000 0.000000 -0.000000
vn 1.000000 0.000000 -0.000000
vn 1.000000 0.000000 -0.000000
vn -0.000000 0.509469 0.860489
vn -0.000000 0.509469 0.860489
vn -0.000000 0.509469 0.860489
vn -0.000000 0.509469 0.860489
vn -1.000000 0.000000 -0.000000
vn -1.000000 0.000000 -0.000000
vn -1.000000 0.000000 -0.000000
vn -1.000000 0.000000 -0.000000
vn 1.000000 -0.000000 0.000000
vn 1.000000 -0.000000 0.000000
vn 1.000000 -0.000000 0.000000
vn 1.000000 -0.000000 0.000000
vn 1.000000 0.000000 0.000000
vn 1.000000 0.000000 0.000000
vn 1.000000 0.000000 0.000000
vn 1.000000 0.000000 0.000000
vn -1.000000 0.000000 -0.000000
vn -1.000000 0.000000 -0.000000
vn -1.000000 0.000000 -0.000000
vn -1.000000 0.000000 -0.000000
vn 0.000000 -1.000000 0.000000
vn 0.000000 -1.000000 0.000000
vn 0.000000 -1.000000 0.000000
vn 0.000000 -1.000000 0.000000
vn -0.000000 0.000000 1.000000
vn -0.000000 0.000000 1.000000
vn -0.000000 0.000000 1.000000
vn -0.000000 0.000000 1.000000
s off
g mechselecttion_platform
usemtl file1SG
f 2/1/1 4/4/2 1/3/3 3/2/4
f 4/4/5 5/6/6 6/5/7 1/3/8
f 1/3/9 6/5/10 7/7/11 3/2/12
f 8/8/13 23/9/14 20/10/15 10/11/16
f 10/11/17 20/10/18 21/12/19 12/13/20
f 12/13/21 21/12/22 22/14/23 14/15/24
f 16/16/25 11/17/26 13/18/27 17/19/28
f 18/20/29 17/19/30 13/18/31 15/21/32
f 16/16/33 19/22/34 9/23/35 11/17/36
f 20/10/37 16/16/38 17/19/39 21/12/40
f 20/10/41 23/24/42 24/25/43 25/26/44
f 19/27/45 16/16/46 27/28/47 26/29/48
f 16/16/49 20/10/50 25/26/51 27/28/52
f 22/30/53 21/12/54 28/31/55 29/32/56
f 21/12/57 17/19/58 30/33/59 28/31/60
f 17/19/61 18/34/62 31/35/63 30/33/64
f 32/36/65 33/37/66 35/38/67 34/39/68
f 33/37/69 39/40/70 37/41/71 35/38/72
f 38/42/73 32/36/74 34/39/75 36/43/76
f 40/44/77 41/45/78 43/46/79 42/47/80
f 46/48/81 47/49/82 41/45/83 40/44/84
f 41/45/85 47/49/86 45/50/87 43/51/88
f 46/48/89 40/44/90 42/52/91 44/53/92
f 48/54/93 49/55/94 51/56/95 50/57/96
f 54/58/97 55/59/98 49/55/99 48/54/100
f 49/55/101 55/59/102 53/60/103 51/61/104
f 54/58/105 48/54/106 50/62/107 52/63/108
f 56/64/109 57/65/110 59/66/111 58/67/112
f 58/67/113 59/66/114 61/68/115 60/69/116
f 62/70/117 63/71/118 57/72/119 56/73/120
f 62/74/121 56/75/122 58/67/123 60/69/124
f 64/76/125 59/66/126 57/77/127 65/78/128
f 65/79/129 57/72/130 63/71/131 66/80/132
f 67/81/133 61/68/134 59/66/135 64/76/136
f 68/82/137 69/83/138 71/84/139 70/85/140
f 70/85/141 71/84/142 73/86/143 72/87/144
f 74/88/145 75/89/146 69/90/147 68/91/148
f 74/92/149 68/93/150 70/85/151 72/87/152
f 76/94/153 71/84/154 69/95/155 77/96/156
f 77/97/157 69/90/158 75/89/159 78/98/160
f 79/99/161 73/86/162 71/84/163 76/94/164
f 80/100/165 81/101/166 83/102/167 82/103/168
f 82/103/169 83/102/170 85/104/171 84/105/172
f 86/106/173 87/107/174 81/101/175 80/100/176
f 88/108/177 89/109/178 91/110/179 90/111/180
f 92/112/181 93/113/182 95/114/183 94/115/184
f 94/115/185 95/114/186 89/109/187 88/108/188
f 89/109/189 95/116/190 93/117/191 91/110/192
f 96/118/193 98/121/194 99/120/195 97/119/196
f 98/121/197 100/123/198 101/122/199 99/120/200
f 102/124/201 96/127/202 97/126/203 103/125/204
f 102/128/205 100/123/206 98/121/207 96/129/208
f 104/130/209 105/132/210 97/131/211 99/120/212
f 105/133/213 106/134/214 103/125/215 97/126/216
f 107/135/217 104/130/218 99/120/219 101/122/220
f 108/136/221 110/139/222 111/138/223 109/137/224
f 110/139/225 112/141/226 113/140/227 111/138/228
f 114/142/229 108/145/230 109/144/231 115/143/232
f 114/146/233 112/141/234 110/139/235 108/147/236
f 116/148/237 117/150/238 109/149/239 111/138/240
f 117/151/241 118/152/242 115/143/243 109/144/244
f 119/153/245 116/148/246 111/138/247 113/140/248
f 120/154/249 122/157/250 123/156/251 121/155/252
f 122/157/253 124/159/254 125/158/255 123/156/256
f 126/160/257 120/154/258 121/155/259 127/161/260
f 128/162/261 130/165/262 131/164/263 129/163/264
f 132/166/265 134/169/266 135/168/267 133/167/268
f 134/169/269 128/162/270 129/163/271 135/168/272
f 129/163/273 131/164/274 133/171/275 135/170/276
